PathFileType	4	(X/Y/Z)	C:\Users\Basilio\Documents\Thesis Gigler\squatting_fais\c3dfiles\038\SLS_front_pre1\markers_experimental.trc
DataRate	CameraRate	NumFrames	NumMarkers	Units	OrigDataRate	OrigDataStartFrame	OrigNumFrames
200.000000	200.000000	4	61	mm	200.000000	319	1279
Frame#	Time	FHD			LBHD			RBHD			C7			T10			CLAV			LSHO			LUUPA			LMUPA			LDUPA			LLEP			LMEP			LUL			LRFIN			RSHO			RUPA1			RMUPA			RDUPA			RLEP			RMEP			RRAD			RUL			RUFIN			LASI			RASI			USACR			LSACR			RSACR			LTHI1			LTHI2			LTHI3			LTHI4			LLFC			LMFC			LTIB1			LTIB2			LTIB3			LTIB4			LLMAL			LMMAL			LHEE			LMT1			LMT2			LMT5			RTHI			RTHI2			RTHI3			RTHI4			RLFC			RMFC			RTIB1			RTIB2			RTIB3			RTIB4			RLMAL			RMMAL			RHEE			RMT1			RMT2			RMT5			LRAD			
		X1	Y1	Z1	X2	Y2	Z2	X3	Y3	Z3	X4	Y4	Z4	X5	Y5	Z5	X6	Y6	Z6	X7	Y7	Z7	X8	Y8	Z8	X9	Y9	Z9	X10	Y10	Z10	X11	Y11	Z11	X12	Y12	Z12	X13	Y13	Z13	X14	Y14	Z14	X15	Y15	Z15	X16	Y16	Z16	X17	Y17	Z17	X18	Y18	Z18	X19	Y19	Z19	X20	Y20	Z20	X21	Y21	Z21	X22	Y22	Z22	X23	Y23	Z23	X24	Y24	Z24	X25	Y25	Z25	X26	Y26	Z26	X27	Y27	Z27	X28	Y28	Z28	X29	Y29	Z29	X30	Y30	Z30	X31	Y31	Z31	X32	Y32	Z32	X33	Y33	Z33	X34	Y34	Z34	X35	Y35	Z35	X36	Y36	Z36	X37	Y37	Z37	X38	Y38	Z38	X39	Y39	Z39	X40	Y40	Z40	X41	Y41	Z41	X42	Y42	Z42	X43	Y43	Z43	X44	Y44	Z44	X45	Y45	Z45	X46	Y46	Z46	X47	Y47	Z47	X48	Y48	Z48	X49	Y49	Z49	X50	Y50	Z50	X51	Y51	Z51	X52	Y52	Z52	X53	Y53	Z53	X54	Y54	Z54	X55	Y55	Z55	X56	Y56	Z56	X57	Y57	Z57	X58	Y58	Z58	X59	Y59	Z59	X60	Y60	Z60	X61	Y61	Z61	

320	1.595	-273.9839172363282	1756.652465820313	-1091.425659179688	-431.652069091797	1712.392944335938	-1152.98388671875	-424.0473937988282	1698.03466796875	-1008.469665527344	-477.3126525878907	1517.733276367188	-1081.196655273438	-432.5202941894532	1239.609252929688	-1075.765869140625	-334.3170471191407	1517.778198242188	-1095.329956054688	-419.7070922851564	1553.160766601563	-1227.970825195313	-258.2824401855469	1492.411254882813	-1363.140014648438	-229.9289245605469	1526.181762695313	-1337.123779296875	-189.2534332275391	1500.117431640625	-1372.711059570313	-127.7127456665039	1502.011962890625	-1375.041748046875	-117.5124130249024	1427.957641601563	-1350.346801757813	167.0387878417969	1511.373901367188	-1350.735107421875	232.007797241211	1531.884155273438	-1263.787963867188	-393.450164794922	1539.169189453125	-950.393249511719	-228.8789978027344	1510.448852539063	-840.2031860351565	-195.3886108398438	1524.484252929688	-872.437683105469	-160.1986999511719	1507.678833007813	-825.8747558593752	-87.4850311279297	1505.788940429688	-819.119567871094	-80.69490051269533	1429.955810546875	-843.2117919921877	190.3155059814453	1511.466064453125	-890.2717895507815	198.8803100585938	1519.969604492188	-820.653991699219	269.4693603515626	1547.02880859375	-890.9588012695315	-243.5957794189454	1061.496704101563	-1178.34423828125	-264.1472167968751	1093.236938476563	-929.3529052734377	-425.3307189941407	1102.47509765625	-1064.0224609375	-433.8798217773439	1070.443115234375	-1089.408447265625	-435.8667602539064	1074.073486328125	-1033.05322265625	-263.5932922363282	733.2820434570314	-1205.849365234375	-231.4492187500001	655.7177124023439	-1192.431640625	-185.1436920166016	663.4512329101564	-1172.8486328125	-258.4925231933594	606.9307861328126	-1171.31787109375	-253.2683258056641	545.5617675781251	-1158.208862304688	-243.0511932373047	545.6087036132814	-1038.904052734375	-237.0454406738282	360.2409667968751	-1070.024536132813	-283.8928833007813	317.5562744140626	-1132.406982421875	-248.2974853515626	311.4490051269532	-1102.030883789063	-270.5261535644532	237.1629180908204	-1066.806884765625	-367.6073608398438	113.3869934082032	-1074.5908203125	-328.2624511718751	129.3857574462891	-1005.470336914063	-417.4007873535157	93.98888397216798	-1017.314636230469	-216.8685913085938	46.21401596069337	-1017.986328125	-210.1838836669922	45.49971008300782	-1069.082641601563	-257.6071166992188	32.88279342651368	-1113.112060546875	-209.0153961181641	848.1467895507815	-847.1984863281252	-148.6441192626953	819.2153320312502	-844.642517089844	-121.6593856811524	836.295349121094	-853.5053710937502	-134.2188720703125	733.6738891601564	-850.8726196289065	-53.37888336181642	623.4909057617189	-849.3198852539065	-54.71590805053712	609.5881347656251	-968.5646972656252	71.85505676269533	489.3153686523439	-860.2756347656252	43.28276824951173	385.491668701172	-813.213806152344	82.49350738525392	409.9494934082032	-824.817321777344	117.6120910644532	369.4869689941407	-849.6580810546877	123.1275482177735	233.9221649169922	-805.0782470703127	147.3338928222657	249.8938446044922	-886.1914062500002	101.8091201782227	155.7765197753907	-863.466003417969	286.4329528808594	272.1641540527344	-857.8164672851565	279.2222900390626	279.5568542480469	-811.4194335937502	254.1953887939454	242.2373046875001	-765.3316650390626	159.7649078369141	1497.626342773438	-1279.12939453125	
321	1.6	-273.9856262207032	1756.569702148438	-1091.542602539063	-431.6960449218751	1712.25244140625	-1153.097290039063	-424.0870971679689	1698.010375976563	-1008.560241699219	-477.4068908691407	1517.674194335938	-1081.319213867188	-432.5550537109376	1239.552001953125	-1075.8232421875	-334.4758605957032	1517.754516601563	-1095.433349609375	-419.7583007812501	1553.102905273438	-1228.03857421875	-258.3818664550782	1492.483764648438	-1363.180297851563	-229.901596069336	1526.218383789063	-1337.1513671875	-189.230209350586	1500.136962890625	-1372.786376953125	-127.7122650146485	1502.012329101563	-1375.093994140625	-117.4987564086914	1427.972412109375	-1350.365356445313	167.0521545410157	1511.370483398438	-1350.613403320313	231.9534149169922	1531.948120117188	-1263.662231445313	-393.5986633300782	1539.124877929688	-950.5471191406252	-228.9976654052735	1510.441772460938	-840.2213134765627	-195.4998168945313	1524.43310546875	-872.5078125000002	-160.2779388427735	1507.618774414063	-825.8980712890627	-87.56829833984376	1505.761962890625	-819.1425781250002	-80.78751373291017	1429.977172851563	-843.1907958984377	190.2151641845703	1511.509399414063	-890.2426757812502	198.7536010742188	1519.971069335938	-820.5887451171877	269.3644714355469	1547.011474609375	-890.8753051757815	-243.5987854003907	1061.474609375	-1178.400390625	-264.2787475585938	1093.15283203125	-929.3175048828127	-425.2673339843751	1102.327392578125	-1064.040283203125	-433.9620971679689	1070.405029296875	-1089.431884765625	-436.0998535156251	1074.068115234375	-1033.08056640625	-263.6176757812501	733.2294311523439	-1205.961669921875	-231.5002746582032	655.6731567382814	-1192.538208007813	-185.1745758056641	663.3842163085939	-1172.984008789063	-258.5165710449219	606.9381103515626	-1171.374145507813	-253.2350158691407	545.5288696289064	-1158.31201171875	-242.864242553711	545.6295776367189	-1038.947998046875	-236.9944458007813	360.2121276855469	-1070.063110351563	-283.8036804199219	317.4946899414063	-1132.394409179688	-248.2383575439454	311.4304504394532	-1102.05615234375	-270.5044555664063	237.1133575439454	-1066.734497070313	-367.6198730468751	113.3269271850586	-1074.576171875	-328.2592773437501	129.3780670166016	-1005.461608886719	-417.4253845214845	93.99986267089845	-1017.268493652344	-216.8612976074219	46.09701156616212	-1018.031127929688	-210.169418334961	45.49072265625001	-1069.116455078125	-257.6016235351563	32.90708541870118	-1113.109497070313	-209.0712127685547	848.112243652344	-847.2659912109377	-148.6857147216797	819.3026123046877	-844.725524902344	-121.7697448730469	836.3682250976565	-853.4522705078127	-134.2749633789063	733.6989746093751	-850.9255371093752	-53.34930419921876	623.5739746093751	-849.379089355469	-54.67633438110353	609.7365112304689	-968.6091918945315	71.91774749755861	489.3908081054689	-860.267517089844	43.36442184448243	385.5508728027345	-813.2335205078127	82.50888824462892	409.984344482422	-824.8861083984377	117.7019653320313	369.5772094726563	-849.760925292969	123.1903991699219	234.0683898925782	-805.1760864257815	147.4241485595703	250.0687408447266	-886.261169433594	101.88427734375	155.8809509277344	-863.6238403320315	286.2757873535157	272.2341308593751	-857.8845214843752	279.0025329589844	279.4430541992188	-811.6274414062502	254.3405761718751	242.4136657714844	-765.2737426757814	159.7842559814453	1497.625732421875	-1279.062377929688	
322	1.605	-274.0652160644532	1756.599731445313	-1091.8212890625	-431.7915954589845	1712.276123046875	-1153.224609375	-424.1626586914064	1697.997802734375	-1008.672546386719	-477.4683227539064	1517.618774414063	-1081.37353515625	-432.7364501953126	1239.520874023438	-1075.939086914063	-334.5126037597657	1517.7197265625	-1095.477416992188	-419.8375854492189	1553.0654296875	-1228.1298828125	-258.2963256835938	1492.491821289063	-1363.269287109375	-229.9327087402344	1526.177856445313	-1337.211303710938	-189.2824401855469	1500.154541015625	-1372.857543945313	-127.7520217895508	1502.017822265625	-1375.156127929688	-117.4911880493164	1427.983032226563	-1350.385864257813	167.0134887695313	1511.40283203125	-1350.530151367188	232.2666625976563	1531.766723632813	-1263.502075195313	-393.6587829589845	1539.098754882813	-950.5833129882815	-229.1055603027344	1510.508544921875	-840.2507324218752	-195.5888977050782	1524.391357421875	-872.541687011719	-160.4242858886719	1507.612426757813	-826.0215454101565	-87.69320678710939	1505.73095703125	-819.1492919921877	-80.84680175781251	1429.934692382813	-843.2308349609377	189.987060546875	1511.382202148438	-890.196228027344	198.5998992919922	1519.99658203125	-820.5486450195315	269.2551879882813	1547.04736328125	-890.8178710937502	-243.6533203125001	1061.491821289063	-1178.471801757813	-264.3806152343751	1093.160522460938	-929.3164062500002	-425.4516601562501	1102.399536132813	-1064.03466796875	-434.0242614746095	1070.422607421875	-1089.460205078125	-436.0850830078126	1074.047485351563	-1033.083984375	-263.6667785644532	733.2268676757814	-1205.962158203125	-231.623519897461	655.5885620117189	-1192.589233398438	-185.1834411621094	663.3668823242189	-1173.115356445313	-258.5211486816407	606.8789672851564	-1171.381713867188	-253.1932067871094	545.4425048828126	-1158.34912109375	-242.7957305908204	545.5985717773439	-1038.914428710938	-236.9410858154297	360.2282409667969	-1070.022216796875	-283.7123413085938	317.4465942382813	-1132.343383789063	-248.169662475586	311.4012756347657	-1101.962280273438	-270.4952392578126	237.0901641845704	-1066.649536132813	-367.4903869628907	113.3608703613282	-1074.470947265625	-328.2410888671876	129.3373260498047	-1005.446960449219	-417.3876953125001	93.99599456787111	-1017.320251464844	-216.8429565429688	46.0873146057129	-1018.065551757813	-210.1797943115235	45.51528930664063	-1069.046020507813	-257.5893859863282	32.9166374206543	-1113.11474609375	-209.1422424316407	848.153503417969	-847.3035278320315	-148.830078125	819.4189453125002	-844.6516723632815	-121.9073791503907	836.386901855469	-853.5617675781252	-134.3374938964844	733.7333374023439	-850.9519042968752	-53.31627273559572	623.6851806640626	-849.4441528320315	-54.58333206176759	609.9340820312501	-968.670349121094	71.97738647460939	489.5225219726564	-860.3308105468752	43.35627746582032	385.7687072753907	-813.4766845703127	82.49656677246095	410.0163574218751	-824.9685058593752	117.8548431396485	369.6308288574219	-849.8937988281252	123.2695236206055	234.2627410888672	-805.2273559570315	147.4664916992188	250.1097106933594	-886.4097290039065	101.9472961425782	156.0433349609375	-863.757751464844	286.3835449218751	272.3354797363282	-858.0269775390627	279.1967163085938	279.5483398437501	-811.7636718750002	254.4718170166016	242.3429565429688	-765.4511718750001	159.7097778320313	1497.690185546875	-1279.047485351563	
323	1.61	-274.0163574218751	1756.332153320313	-1091.959716796875	-431.7822265625001	1712.30712890625	-1153.31103515625	-424.206512451172	1697.9482421875	-1008.797912597656	-477.5769348144532	1517.606811523438	-1081.534423828125	-432.7957763671876	1239.484252929688	-1076.013793945313	-334.5257263183594	1517.700439453125	-1095.59716796875	-419.8671264648439	1552.987915039063	-1228.201171875	-258.2585754394532	1492.47119140625	-1363.396850585938	-229.9934387207032	1526.150268554688	-1337.29052734375	-189.3227081298828	1500.111450195313	-1372.903076171875	-127.6954498291016	1502.019897460938	-1375.188110351563	-117.525260925293	1427.962890625	-1350.472900390625	167.003173828125	1511.437377929688	-1350.447021484375	231.8358459472657	1532.003295898438	-1263.434814453125	-393.7547912597657	1539.067016601563	-950.7127075195315	-229.2925872802735	1510.480102539063	-840.3426513671877	-195.6251220703126	1524.371826171875	-872.6374511718752	-160.5045776367188	1507.630249023438	-826.0048828125002	-87.80448150634767	1505.722412109375	-819.172790527344	-80.88838958740236	1429.846069335938	-843.187194824219	190.0549468994141	1511.455200195313	-890.2283935546877	198.5540008544922	1520.036499023438	-820.485290527344	269.2115478515626	1547.075805664063	-890.8401489257815	-243.7348327636719	1061.3583984375	-1178.498168945313	-264.4918518066407	1093.123168945313	-929.3331298828127	-425.4818115234376	1102.34423828125	-1064.1142578125	-434.1109924316407	1070.449340820313	-1089.468505859375	-436.4266357421876	1073.959716796875	-1033.178466796875	-263.7409057617188	733.1420898437501	-1206.007568359375	-231.6478271484376	655.5255126953126	-1192.599243164063	-185.1946411132813	663.2921142578126	-1173.130493164063	-258.4907836914063	606.8408203125001	-1171.38916015625	-253.1616516113282	545.4248657226564	-1158.298706054688	-242.7447814941407	545.5836181640626	-1038.972290039063	-236.9932098388672	360.1994934082032	-1069.948486328125	-283.6496887207032	317.3930969238282	-1132.308959960938	-248.0576782226563	311.8853759765626	-1101.728881835938	-270.4650573730469	237.0959014892579	-1066.611206054688	-367.5319213867188	113.3956069946289	-1074.47119140625	-328.2647399902344	129.3799133300782	-1005.40966796875	-417.4058837890626	93.98178100585939	-1017.264038085938	-216.8529815673829	46.05070877075196	-1018.075012207031	-210.1810913085938	45.54899978637696	-1069.037719726563	-257.5715332031251	32.90532684326173	-1113.130737304688	-209.3258209228516	848.1795043945315	-847.2996826171877	-148.8797607421875	819.474304199219	-844.6753540039065	-121.9818191528321	836.4504394531252	-853.5827636718752	-134.3506927490235	733.8380737304689	-851.0078735351565	-53.30125808715822	623.7540893554689	-849.4674072265627	-54.47764968872072	610.1190185546876	-968.662780761719	72.04487609863283	489.612030029297	-860.3325195312502	43.43435287475587	385.9093322753907	-813.5521240234377	82.49979400634767	410.1568603515626	-825.0622558593752	117.9084625244141	369.7897338867188	-849.9495239257815	123.2862014770508	234.382064819336	-805.3586425781252	147.5751647949219	250.1619873046876	-886.4896240234377	101.9428482055664	156.1781921386719	-863.873229980469	286.4841308593751	272.4629516601563	-858.169372558594	279.2332458496094	279.6635131835938	-811.9758911132815	254.5709075927735	242.3398590087891	-765.5756835937501	159.7260437011719	1497.637817382813	-1278.981689453125	
